PathFileType	4	(X/Y/Z)	C:/Users/beibeiliu/ov580/test_trc/User1\sequence.25_training_dense_right.trc
DataRate	CameraRate	NumFrames	NumMarkers	Units	OrigDataRate	OrigDataStartFrame	OrigNumFrames
120	120	24	19	mm	120	1	242
Frame#	Time	ThumbCMC			ThumbMCP			ThumbIP			ThumbTip			IndexMCP			IndexPIP			IndexTip			MiddleMCP			MiddlePIP			MiddleTip			RingMCP			RingPIP			RingTip			PinkyMCP			PinkyPIP			PinkyTip			BackHand1			BackHand2			BackHand3	
		X0	Y0	Z0	X1	Y1	Z1	X2	Y2	Z2	X3	Y3	Z3	X4	Y4	Z4	X5	Y5	Z5	X6	Y6	Z6	X7	Y7	Z7	X8	Y8	Z8	X9	Y9	Z9	X10	Y10	Z10	X11	Y11	Z11	X12	Y12	Z12	X13	Y13	Z13	X14	Y14	Z14	X15	Y15	Z15	X16	Y16	Z16	X17	Y17	Z17	X18	Y18	Z18	
0	0	159.357	6.35502	35.5947	131.753	-9.80642	28.4769	111.794	-21.1301	13.5426	94.0585	-28.394	7.60576	171.228	-5.81186	-48.2046	170.056	-11.351	-76.8907	168.417	-13.8748	-98.2092	202.895	-1.47667	-56.147	200.682	-5.92636	-84.0786	207.333	-11.8372	-113.908	225.711	-5.76136	-48.0102	231.336	-7.94798	-75.4891	239.526	-12.7203	-100.518	249.214	-16.4131	-25.8396	262.832	-19.102	-39.5565	275.988	-14.5299	-54.5136	220.716	11.3998	0.381175	221.185	28.5185	31.3359	186.966	21.9034	15.1808	
1	0.00833333	156.369	4.95281	31.297	136.005	-10.5583	28.3822	112.522	-21.3719	12.0714	92.8273	-26.7032	12.0202	170.953	-6.4726	-48.0333	167.477	-9.61422	-76.3415	171.683	-14.0905	-101.991	198.808	-2.01822	-55.4231	199.806	-6.5628	-88.1165	206.308	-11.2074	-115.823	223.317	-5.57485	-50.5483	234.79	-7.72783	-71.9492	237.582	-12.7217	-100.383	248.057	-16.926	-25.4317	263.491	-19.4823	-40.5781	274.625	-16.0676	-60.1471	220.181	10.7316	0.537084	221.249	27.3081	31.0513	185.988	21.8391	11.7595	
2	0.0166667	156.068	6.79412	36.5524	135.199	-11.4806	26.4367	111.435	-20.5126	13.721	94.1227	-27.2822	9.07382	171.326	-6.46439	-48.209	166.822	-9.43928	-72.4102	172.256	-13.7691	-98.6167	199.054	-2.6095	-60.3473	199.291	-6.55942	-87.4059	206.52	-11.3761	-116.863	225.909	-5.80272	-48.6106	230.52	-8.11912	-72.3417	237.892	-13.4323	-98.7964	248.805	-16.2084	-26.8437	262.077	-20.5379	-38.2107	272.779	-16.059	-56.3261	221.058	10.425	-0.494989	224.231	27.0684	28.1793	188.084	22.4579	13.1139	
3	0.025	154.465	6.29375	34.1598	133.477	-9.41994	29.812	111.22	-20.8135	12.4802	91.5292	-27.3268	10.136	169.034	-5.84941	-46.0016	166.709	-9.82302	-76.2929	173.059	-13.5091	-99.9333	202.793	-1.87784	-57.5172	203.209	-6.28642	-87.7723	208.612	-11.6896	-114.485	224.286	-4.83693	-50.1355	232.176	-7.52599	-75.816	236.349	-13.7401	-99.3143	247.919	-15.8822	-25.2778	259.7	-19.9688	-36.9448	275.942	-15.437	-58.409	218.115	12.1416	-0.723964	222.79	26.0056	31.7892	184.201	20.5486	10.5089	
4	0.0333333	152.983	6.45484	33.2208	134.189	-10.4083	28.9258	111.462	-20.5186	14.5261	91.747	-28.3712	9.8722	170.327	-5.87261	-49.4105	166.275	-8.92453	-72.6066	172.921	-14.0231	-98.4703	197.696	-1.65867	-54.0313	200.76	-7.05792	-87.1364	204.954	-10.7488	-112.342	222.842	-5.81912	-44.7059	229.007	-8.03288	-76.3122	236.233	-12.7642	-100.386	247.827	-16.0476	-21.6047	262.211	-19.1779	-40.338	275.859	-16.4515	-58.3304	218.611	12.1148	3.09552	225.377	27.7682	31.4634	189.481	21.6848	14.4508	
5	0.0416667	153.635	4.43509	32.7726	136.03	-12.6673	28.2176	115.301	-22.0729	18.0101	94.8575	-29.1025	12.6337	167.417	-7.30714	-47.3785	170.452	-10.8475	-74.8173	166.852	-14.0316	-100.849	200.16	-2.31125	-53.8138	202.891	-6.35045	-83.3066	204.194	-11.5418	-110.529	222.233	-6.0593	-48.1432	231.503	-7.63156	-72.4821	233.438	-14.1143	-96.4259	250.699	-16.8616	-23.9427	258.914	-19.5195	-37.9529	277.562	-15.0113	-57.982	222.802	9.99623	0.916901	222.49	25.3162	29.4369	188.913	19.7528	11.0314	
6	0.05	156.126	3.89372	33.9241	133.221	-10.843	30.7684	110.072	-21.0609	17.7642	92.4126	-28.1901	15.9163	168.711	-7.44327	-47.215	165.108	-10.6162	-74.6026	172.066	-14.9947	-99.392	197.424	-1.99126	-54.7586	200.458	-6.84027	-83.2317	204.988	-12.3666	-112.238	226.191	-5.69307	-47.1529	232.384	-8.22382	-72.1826	236.665	-13.8562	-95.6039	247.057	-16.8429	-22.4692	263.566	-20.9853	-37.4652	277.601	-16.6182	-58.0864	219.202	11.9795	3.53122	220.222	25.822	32.0313	186.661	19.3263	12.3332	
7	0.0583333	155.56	5.84053	38.7732	133.366	-10.6422	30.9047	111.723	-20.802	18.4801	91.6737	-27.1793	14.2513	166.424	-6.35114	-46.7935	167.772	-11.3811	-75.6083	168.961	-14.2752	-101.182	199.63	-2.98753	-55.7406	200.77	-7.34697	-84.0789	208.196	-12.2641	-115.376	226.771	-6.705	-47.0396	233.387	-8.58913	-72.6797	233.584	-13.4588	-95.4363	246.706	-16.3562	-20.6595	258.815	-20.4159	-35.5431	275.984	-15.1445	-54.5362	218.518	11.6936	-0.369569	221.114	27.3112	33.969	184.507	21.3546	15.5803	
8	0.0666667	157.536	3.37182	34.4942	133.588	-11.2901	31.9311	114.504	-21.402	19.4963	93.5933	-27.8317	16.4596	168.436	-7.46611	-47.2532	166.348	-10.1409	-73.212	170.278	-14.4387	-95.932	200.172	-2.92292	-53.8613	201.77	-8.18095	-85.4517	204.809	-12.3947	-108.729	222.89	-5.70738	-42.8941	229.651	-8.4863	-69.6293	235.864	-13.2275	-97.4972	248.7	-16.6496	-21.1821	259.364	-21.1907	-37.8202	275.438	-17.1412	-51.2059	222.879	11.6471	1.78704	224.402	25.3542	31.72	188.252	20.2036	17.177	
9	0.075	156.023	5.65333	39.3803	133.34	-12.4478	31.9414	113.503	-21.1096	20.1262	92.5711	-27.3631	14.9739	170.796	-7.35943	-46.7987	165.257	-11.2139	-69.2958	169.479	-16.2368	-98.4362	197.13	-2.84703	-56.2266	201.216	-8.35612	-84.7629	203.734	-12.0146	-109.148	224.261	-6.11114	-42.4757	229.069	-8.86824	-69.2898	234.636	-14.0022	-95.3953	250.908	-17.2494	-19.9487	260.332	-20.9773	-36.2034	272.234	-15.6964	-54.6668	218.085	9.53902	5.40359	224.322	23.8123	31.3644	190.24	21.6789	17.5877	
10	0.0833333	158.029	4.21891	35.8987	131.078	-12.0824	30.2847	110.272	-22.1475	20.0979	92.2873	-29.314	13.9811	168.613	-7.09274	-43.0648	165.162	-11.6899	-73.3737	172.676	-15.6629	-95.909	199.594	-3.77918	-55.0921	203.51	-7.33206	-80.85	206.223	-12.9181	-109.519	226.291	-6.48316	-45.9292	230.801	-8.60413	-69.8943	235.572	-14.1445	-94.9853	251.31	-18.1438	-19.7051	260.041	-21.2555	-36.2656	274.99	-15.6697	-56.8091	218.335	10.4409	6.70816	222.947	26.6676	34.511	189.089	19.3592	18.5847	
11	0.0916667	156.99	4.90094	40.306	136.604	-13.2246	30.1373	110.242	-23.6182	16.2307	89.8974	-28.84	13.6122	166.723	-7.55151	-45.6677	167.506	-11.1584	-72.9347	170.156	-15.901	-98.7865	196.701	-3.11131	-52.1861	201.977	-6.96439	-82.7629	203.181	-11.8362	-110.47	225.177	-5.59207	-45.4341	231.638	-8.60364	-69.6967	234.752	-14.5538	-97.3408	248.331	-17.5652	-25.0977	262.645	-20.3948	-38.2782	275.962	-16.5125	-54.7038	220.242	9.65044	1.49212	222.055	25.5378	33.1269	184.653	18.5007	14.6654	
12	0.1	154.612	5.56544	39.2115	135.355	-12.7	30.115	113.835	-22.3183	20.0018	93.6899	-27.8495	15.4973	166.203	-5.96539	-48.0605	168.032	-10.7015	-72.785	167.375	-15.0479	-94.5071	197.031	-2.19206	-57.2659	204.247	-7.8445	-85.0407	206.694	-12.5561	-110.716	224.339	-5.52004	-46.8625	233.72	-8.46876	-72.9254	233.585	-13.3774	-97.3717	250.727	-16.5956	-23.4903	260.38	-20.2771	-38.0509	273.594	-16.6103	-56.5712	218.672	12.3585	2.1524	222.034	24.8165	32.5797	185.483	22.1895	17.3039	
13	0.108333	158.729	4.09639	36.232	134.474	-13.1741	30.4181	114.608	-22.2946	17.7289	94.8512	-27.9441	16.7934	170.92	-6.90434	-44.89	170.067	-10.3473	-72.1534	169.67	-14.2169	-99.7031	202.518	-2.20505	-52.1182	204.254	-6.92859	-80.5645	208.398	-11.9883	-112.524	227.943	-5.87836	-46.8172	228.235	-8.64335	-70.9057	235.882	-13.5295	-93.0394	250.992	-16.3883	-19.0037	263.482	-20.9639	-37.2517	271.646	-16.3462	-54.0251	219.169	11.9109	6.00917	222.9	24.8065	31.9343	185.551	22.1922	17.8249	
14	0.116667	157.114	4.29047	37.0805	132.754	-11.4161	33.7271	113.911	-21.7209	18.9082	91.0261	-27.1331	13.5105	168.476	-5.55588	-47.9976	170.135	-10.7375	-73.9855	168.903	-14.0275	-96.4915	198.367	-2.59954	-53.7183	204.728	-6.61687	-79.3889	207.056	-11.6639	-111.028	228.494	-5.89128	-44.6374	232.081	-8.02442	-73.3387	235.387	-13.3402	-97.5933	249.749	-16.9162	-19.4185	263.692	-19.2032	-32.1174	275.86	-14.3842	-54.612	222.983	10.9633	5.228	221.587	26.0228	34.31	186.974	19.3099	15.3954	
15	0.125	155.538	5.89395	36.7791	134.812	-11.6945	31.9621	113.297	-20.3306	20.1529	94.6688	-26.7548	15.5711	168.073	-4.61725	-46.824	167.193	-9.76482	-73.5774	167.884	-12.2024	-96.3905	199.961	-2.19409	-55.6031	200.616	-6.50119	-83.6412	204.723	-10.5562	-109.368	223.881	-4.93852	-46.0865	234.358	-6.66199	-68.2616	237.719	-12.2484	-95.4743	250.628	-16.3606	-19.816	262.952	-19.7267	-33.1219	274.606	-14.2207	-53.3528	224.557	12.9078	6.08103	225.954	26.3544	32.2438	188.045	21.1379	18.9846	
16	0.133333	159.152	5.45281	37.5989	133.102	-11.168	31.4462	113.861	-22.0642	15.4083	92.9766	-28.1498	13.1002	168.139	-3.89646	-47.6468	165.865	-8.02525	-71.869	171.701	-10.3957	-98.5039	198.704	-0.179265	-52.4889	200.791	-5.68048	-80.6775	209.611	-10.7583	-107.992	223.633	-4.31224	-41.6891	231.528	-7.43544	-71.9894	235.487	-12.3181	-97.1664	249.803	-15.169	-17.88	262.482	-20.5862	-37.3468	274.846	-15.5088	-56.2156	222.268	14.1849	6.63845	225.547	28.1446	35.8776	188.972	21.7571	20.1332	
17	0.141667	155.549	6.33885	36.2756	134.807	-13.3401	27.3695	113.118	-21.2883	18.7974	95.1601	-28.2319	13.724	170.536	-2.1367	-48.2915	169.269	-5.57109	-72.681	171.622	-8.67483	-96.3317	201.633	-0.300996	-55.625	203.484	-5.24422	-84.128	205.495	-9.51433	-110.824	222.88	-4.00241	-46.0899	233.422	-9.17585	-74.2089	233.316	-15.0981	-95.7274	249.436	-15.8244	-23.4442	262.907	-21.8464	-38.4009	276.697	-18.2067	-53.8058	223.159	15.0733	6.02231	224.713	28.985	37.7498	185.499	22.7161	19.9322	
18	0.15	154.174	7.77986	40.8198	134.44	-12.5781	27.5346	113.757	-21.6521	18.6044	93.9828	-28.885	11.5721	167.187	0.8775	-44.9535	168.481	-1.64094	-69.6411	173.112	-3.30936	-98.6651	198.522	2.32192	-56.669	203.964	-3.29115	-79.6224	210.251	-8.92362	-111.004	227.482	-4.8318	-42.8399	230.936	-10.7845	-69.9877	233.927	-21.3109	-96.05	248.265	-15.8293	-20.6096	261.05	-25.5869	-40.1226	272.778	-28.1701	-55.1746	218.961	15.6458	4.91783	221.361	26.3816	37.0962	188.313	24.4067	19.4965	
19	0.158333	154.599	7.73094	37.8421	137.262	-12.4048	24.658	118.762	-22.0419	14.3876	97.0956	-30.1799	6.87522	168.236	3.43056	-42.4479	167.026	2.65381	-70.0692	167.775	1.3009	-94.5617	203.698	3.52354	-55.6795	204.247	-2.35271	-82.313	208.118	-8.35417	-112.091	226.514	-8.05209	-48.0931	227.862	-17.4729	-72.812	231.881	-33.1911	-96.5141	245.809	-18.1088	-21.2217	257.559	-30.8319	-37.7723	265.322	-40.8817	-62.3337	219.266	16.5625	3.40107	223.942	27.6448	34.8378	189.678	26.2435	22.0819	
20	0.166667	158.424	6.96462	35.6325	139.129	-11.5796	26.8209	116.107	-21.9144	12.2199	102.921	-31.5718	-0.337109	172.379	6.5543	-45.147	166.002	6.50518	-70.1598	168.249	5.37259	-95.6881	199.826	5.7397	-52.7725	204.016	-0.645281	-80.1331	205.131	-9.12169	-113.589	224.043	-10.6363	-48.642	225.474	-26.7474	-73.3637	229.874	-45.5276	-88.6201	248.974	-23.3842	-22.216	254.128	-38.5219	-35.5644	258.312	-56.0198	-56.3647	225.838	18.212	7.87888	227.114	29.0617	37.8994	185.957	26.0477	17.5077	
21	0.175	156.299	8.80766	34.794	139.552	-12.8642	20.4978	117.336	-22.0939	6.89151	103.728	-31.9734	-1.42659	170.243	10.1715	-48.7379	166.804	10.566	-68.5496	169.313	11.1462	-99.3592	201.611	5.4802	-56.2583	200.704	-2.32141	-84.943	206.805	-11.3695	-112.289	224.868	-14.4242	-49.6386	223.705	-32.5171	-68.2838	222.671	-57.8095	-81.8537	245.062	-28.1918	-25.3054	243.967	-46.1084	-36.7774	241.355	-66.6829	-52.7279	220.671	19.963	7.52566	225.361	28.0646	38.1782	190.913	28.9269	20.5182	
22	0.183333	157.438	9.62496	34.3372	140.995	-11.511	21.9034	120.259	-21.0706	0.684548	104.456	-31.6303	-8.86642	169.339	13.7793	-48.6834	168.198	12.8228	-72.786	172.093	14.5928	-97.1204	203.902	5.05805	-53.4594	204.858	-4.28597	-82.7939	207.174	-15.819	-113.87	223.839	-14.6093	-46.1175	219.2	-38.7473	-67.294	215.613	-68.5854	-72.0731	238.284	-30.0053	-26.6183	238.333	-51.4976	-32.8186	224.062	-73.4036	-46.5334	221.466	19.6119	2.1512	223.717	27.6879	40.1044	190.106	28.4481	17.3901	
23	0.191667	155.494	9.34292	37.0404	139.858	-12.2557	19.867	125.058	-22.1132	1.86734	104.321	-32.48	-9.5851	171.583	14.6992	-44.7656	165.795	16.6534	-71.9238	172.661	17.1393	-95.6261	198.999	6.49611	-54.4564	202.588	-5.08858	-83.5331	204.626	-16.7512	-110.236	219.593	-17.1498	-47.5628	216.108	-47.8553	-64.0819	202.406	-75.9876	-57.6637	235.78	-31.8089	-25.9492	229.295	-50.338	-31.8809	212.035	-76.5335	-32.7147	222.691	17.5721	1.92287	225.293	28.8093	39.1262	189.706	30.2086	21.6855	
